<svg version="1.1" xmlns="http://www.w3.org/2000/svg" xmlns:xlink="http://www.w3.org/1999/xlink" width="48" height="48"><defs><linearGradient x1="16.00184" y1="14.2299" x2="53.21138" y2="54.98331" gradientUnits="userSpaceOnUse" id="color-1"><stop offset="0" stop-color="#000000" stop-opacity="0.3"></stop><stop offset="1" stop-color="#000000" stop-opacity="0"></stop></linearGradient><filter id="dropshadow-base"><feColorMatrix type="matrix" values="0 0 0 0 0  0 0 0 0 0  0 0 0 0 0  0 0 0 .8 0"></feColorMatrix> <feOffset dx="0" dy="1"></feOffset> <feGaussianBlur stdDeviation="1"></feGaussianBlur> <feComposite in="SourceGraphic"></feComposite></filter><filter id="dropshadow-banner" x="-10%" y="-10%" width="120%" height="130%"><feColorMatrix type="matrix" values="0 0 0 0 0  0 0 0 0 0  0 0 0 0 0  0 0 0 .4 0"></feColorMatrix> <feOffset dx="0" dy="1"></feOffset> <feGaussianBlur stdDeviation="0.5"></feGaussianBlur> <feComposite in="SourceGraphic"></feComposite></filter></defs><g fill="none" fill-rule="nonzero" stroke="none" stroke-width="none" stroke-linecap="butt" stroke-linejoin="miter" stroke-miterlimit="10" stroke-dasharray="" stroke-dashoffset="0" font-family="none" font-weight="none" font-size="none" text-anchor="none" style="mix-blend-mode: normal"><path d="M2,24c0,-12.15026 9.84974,-22 22,-22c12.15026,0 22,9.84974 22,22c0,12.15026 -9.84974,22 -22,22c-12.15026,0 -22,-9.84974 -22,-22z" id="base 1 25" fill="#512da8" stroke-width="1"></path><path d="M16.26274,33.5092c0,0 0,0 0,0c-0.16098,-0.16098 -0.26091,-0.38303 -0.26091,-0.62729v-4.099c0.49739,0.34195 1.09692,0.54624 1.74086,0.54624c0.19076,0 0.37864,-0.01724 0.56187,-0.05099l-1.79201,-1.79201c0,0 0,0 0,0c-0.31531,-0.31531 -0.51071,-0.75052 -0.51071,-1.23015v-1.36782c0,-1.46995 1.19461,-2.66457 2.66457,-2.66457h4.44095v-1.77638l1.04028,0l-1.40834,-1.40834c-0.32141,-0.32141 -0.52015,-0.76551 -0.52015,-1.25623c0,-0.33307 0.09326,-0.64837 0.25313,-0.91483l1.52325,-2.63793l19.661,19.661c-2.99699,5.94434 -8.61108,10.34341 -15.32859,11.68352z" fill="url(#color-1)" stroke-width="1"></path><path d="M23.99556,19.55904c0.98145,0 1.77638,-0.79493 1.77638,-1.77638c0,-0.33307 -0.09326,-0.64838 -0.25313,-0.91484l-1.52325,-2.63793l-1.52325,2.63793c-0.15987,0.26646 -0.25313,0.58177 -0.25313,0.91484c0,0.98145 0.79493,1.77638 1.77638,1.77638zM28.0768,28.42764l-0.95481,-0.95481l-0.95925,0.95481c-1.15909,1.15909 -3.18417,1.15909 -4.34326,0l-0.95481,-0.95481l-0.95925,0.95481c-0.57288,0.58177 -1.34117,0.90151 -2.16275,0.90151c-0.64394,0 -1.24347,-0.20428 -1.74086,-0.54624v4.099c0,0.48851 0.39969,0.88819 0.88819,0.88819h14.21107c0.48851,0 0.88819,-0.39969 0.88819,-0.88819v-4.099c-0.49739,0.34195 -1.09248,0.54624 -1.74086,0.54624c-0.82158,0 -1.58986,-0.31975 -2.17163,-0.90151zM29.32471,22.22362h-4.44096v-1.77638h-1.77638v1.77638h-4.44096c-1.46996,0 -2.66458,1.19462 -2.66458,2.66458v1.36782c0,0.95925 0.78161,1.74086 1.74086,1.74086c0.4663,0 0.90151,-0.18208 1.23015,-0.51071l1.90073,-1.89629l1.89629,1.89185c0.65726,0.65726 1.80303,0.65726 2.46029,0l1.90073,-1.89185l1.89629,1.89185c0.32863,0.32863 0.76384,0.51071 1.23015,0.51071c0.95925,0 1.74086,-0.78161 1.74086,-1.74086v-1.36337c-0.00888,-1.46996 -1.2035,-2.66458 -2.67346,-2.66458z" fill="none" stroke-width="0"></path><path d="M22.21918,17.78266c0,-0.33307 0.09326,-0.64838 0.25313,-0.91484l1.52325,-2.63793l1.52325,2.63793c0.15987,0.26646 0.25313,0.58177 0.25313,0.91484c0,0.98145 -0.79493,1.77638 -1.77638,1.77638c-0.98145,0 -1.77638,-0.79493 -1.77638,-1.77638zM30.24843,29.32915c0.64838,0 1.24347,-0.20428 1.74086,-0.54624v4.099c0,0.48851 -0.39969,0.88819 -0.88819,0.88819h-14.21107c-0.48851,0 -0.88819,-0.39969 -0.88819,-0.88819v-4.099c0.49739,0.34195 1.09692,0.54624 1.74086,0.54624c0.82158,0 1.58986,-0.31975 2.16275,-0.90151l0.95925,-0.95481l0.95481,0.95481c1.15909,1.15909 3.18417,1.15909 4.34326,0l0.95925,-0.95481l0.95481,0.95481c0.58177,0.58177 1.35005,0.90151 2.17163,0.90151zM31.99817,24.88819v1.36337c0,0.95925 -0.78161,1.74086 -1.74086,1.74086c-0.4663,0 -0.90151,-0.18208 -1.23015,-0.51071l-1.89629,-1.89185l-1.90073,1.89185c-0.65726,0.65726 -1.80303,0.65726 -2.46029,0l-1.89629,-1.89185l-1.90073,1.89629c-0.32863,0.32863 -0.76384,0.51071 -1.23015,0.51071c-0.95925,0 -1.74086,-0.78161 -1.74086,-1.74086v-1.36782c0,-1.46996 1.19462,-2.66458 2.66458,-2.66458h4.44096v-1.77638h1.77638v1.77638h4.44096c1.46996,0 2.66458,1.19462 2.67346,2.66458z" fill="#ffffff" stroke-width="0"></path><path d="M2,24c0,-12.15026 9.84974,-22 22,-22c12.15026,0 22,9.84974 22,22c0,12.15026 -9.84974,22 -22,22c-12.15026,0 -22,-9.84974 -22,-22z" id="base 1 21 1" fill="none" stroke-width="1"></path><path d="M2,24c0,-12.15026 9.84974,-22 22,-22c12.15026,0 22,9.84974 22,22c0,12.15026 -9.84974,22 -22,22c-12.15026,0 -22,-9.84974 -22,-22z" id="base 1 17 1" fill="none" stroke-width="1"></path><path d="M2,24c0,-12.15026 9.84974,-22 22,-22c12.15026,0 22,9.84974 22,22c0,12.15026 -9.84974,22 -22,22c-12.15026,0 -22,-9.84974 -22,-22z" id="base 1 13 1" fill="none" stroke-width="1"></path><path d="M2,24c0,-12.15026 9.84974,-22 22,-22c12.15026,0 22,9.84974 22,22c0,12.15026 -9.84974,22 -22,22c-12.15026,0 -22,-9.84974 -22,-22z" id="base 1 9 1" fill="none" stroke-width="1"></path><path d="M2,24c0,-12.15026 9.84974,-22 22,-22c12.15026,0 22,9.84974 22,22c0,12.15026 -9.84974,22 -22,22c-12.15026,0 -22,-9.84974 -22,-22z" id="base 1 5 1" fill="none" stroke-width="1"></path><path d="M2,24c0,-12.15026 9.84974,-22 22,-22c12.15026,0 22,9.84974 22,22c0,12.15026 -9.84974,22 -22,22c-12.15026,0 -22,-9.84974 -22,-22z" id="base 1 1 1" fill="none" stroke-width="1"></path><g fill="#000000" stroke-width="1" font-family="Roboto, sans-serif" font-weight="400" font-size="14" text-anchor="start"></g><rect x="2" y="2" width="44" height="22" fill="none" stroke-width="1"></rect><path d="M2,24v-22h44v22z" fill="none" stroke-width="1"></path><path d="M2,24v-22h44v22z" fill="none" stroke-width="1"></path><path d="M2,24v-22h44v22z" fill="none" stroke-width="1"></path><path d="M2,24v-22h44v22z" fill="none" stroke-width="1"></path><g fill="#000000" stroke-width="1" font-family="Roboto, sans-serif" font-weight="400" font-size="14" text-anchor="start"></g><rect x="2" y="2" width="44" height="22" fill="none" stroke-width="1"></rect><path d="M2,24v-22h44v22z" fill="none" stroke-width="1"></path><path d="M2,24v-22h44v22z" fill="none" stroke-width="1"></path><path d="M2,24v-22h44v22z" fill="none" stroke-width="1"></path><path d="M2,24v-22h44v22z" fill="none" stroke-width="1"></path><g fill="#000000" stroke-width="1" font-family="Roboto, sans-serif" font-weight="400" font-size="14" text-anchor="start"></g><rect x="2" y="2" width="44" height="22" fill="none" stroke-width="1"></rect><path d="M2,24v-22h44v22z" fill="none" stroke-width="1"></path><path d="M2,24v-22h44v22z" fill="none" stroke-width="1"></path><path d="M2,24v-22h44v22z" fill="none" stroke-width="1"></path><path d="M2,24v-22h44v22z" fill="none" stroke-width="1"></path><g fill="#000000" stroke-width="1" font-family="Roboto, sans-serif" font-weight="400" font-size="14" text-anchor="start"></g><rect x="2" y="2" width="44" height="22" fill="none" stroke-width="1"></rect><path d="M2,24v-22h44v22z" fill="none" stroke-width="1"></path><path d="M2,24v-22h44v22z" fill="none" stroke-width="1"></path><path d="M2,24v-22h44v22z" fill="none" stroke-width="1"></path><path d="M2,24v-22h44v22z" fill="none" stroke-width="1"></path><g fill="#000000" stroke-width="1" font-family="Roboto, sans-serif" font-weight="400" font-size="14" text-anchor="start"></g><rect x="2" y="2" width="44" height="22" fill="none" stroke-width="1"></rect><path d="M2,24v-22h44v22z" fill="none" stroke-width="1"></path><path d="M2,24v-22h44v22z" fill="none" stroke-width="1"></path><path d="M2,24v-22h44v22z" fill="none" stroke-width="1"></path><path d="M2,24v-22h44v22z" fill="none" stroke-width="1"></path><g fill="#000000" stroke-width="1" font-family="Roboto, sans-serif" font-weight="400" font-size="14" text-anchor="start"></g><rect x="2" y="2" width="44" height="22" fill="none" stroke-width="1"></rect><path d="M2,24v-22h44v22z" fill="none" stroke-width="1"></path><path d="M2,24v-22h44v22z" fill="none" stroke-width="1"></path><path d="M2,24v-22h44v22z" fill="none" stroke-width="1"></path><path d="M2,24v-22h44v22z" fill="none" stroke-width="1"></path></g></svg>