<svg version="1.1" xmlns="http://www.w3.org/2000/svg" xmlns:xlink="http://www.w3.org/1999/xlink" width="48" height="48"><defs><linearGradient x1="14.22989" y1="14.22989" x2="54.9833" y2="54.98331" gradientUnits="userSpaceOnUse" id="color-1"><stop offset="0" stop-color="#000000" stop-opacity="0.3"></stop><stop offset="1" stop-color="#000000" stop-opacity="0"></stop></linearGradient><filter id="dropshadow-base"><feColorMatrix type="matrix" values="0 0 0 0 0  0 0 0 0 0  0 0 0 0 0  0 0 0 .8 0"></feColorMatrix> <feOffset dx="0" dy="1"></feOffset> <feGaussianBlur stdDeviation="1"></feGaussianBlur> <feComposite in="SourceGraphic"></feComposite></filter><filter id="dropshadow-banner" x="-10%" y="-10%" width="120%" height="130%"><feColorMatrix type="matrix" values="0 0 0 0 0  0 0 0 0 0  0 0 0 0 0  0 0 0 .4 0"></feColorMatrix> <feOffset dx="0" dy="1"></feOffset> <feGaussianBlur stdDeviation="0.5"></feGaussianBlur> <feComposite in="SourceGraphic"></feComposite></filter></defs><g fill="none" fill-rule="nonzero" stroke="none" stroke-width="none" stroke-linecap="butt" stroke-linejoin="miter" stroke-miterlimit="10" stroke-dasharray="" stroke-dashoffset="0" font-family="none" font-weight="none" font-size="none" text-anchor="none" style="mix-blend-mode: normal"><path d="M2,24c0,-12.15026 9.84974,-22 22,-22c12.15026,0 22,9.84974 22,22c0,12.15026 -9.84974,22 -22,22c-12.15026,0 -22,-9.84974 -22,-22z" id="base 1 5" fill="#512da8" stroke-width="1"></path><path d="M15.50136,28.15636c-0.78568,-0.78568 -1.27147,-1.87124 -1.27147,-3.0708v-10.85568h17.36909l0.00001,0.00001c0.59977,0.00001 1.14255,0.2429 1.53538,0.63573l12.59501,12.59501c-1.54056,9.75027 -9.48614,17.37066 -19.39227,18.41668l-12.10722,-12.10722v-2.17113l4.71408,0z" fill="url(#color-1)" stroke-width="1"></path><path d="M31.59897,14.22989h-17.36908v10.85568c0,2.3991 1.94317,4.34227 4.34227,4.34227h6.51341c2.3991,0 4.34227,-1.94317 4.34227,-4.34227v-3.2567h2.17114c1.19955,0 2.17114,-0.97158 2.17114,-2.17114v-3.2567c0,-1.19955 -0.97158,-2.17114 -2.17114,-2.17114zM31.59897,19.65773h-2.17114v-3.2567h2.17114zM14.22989,31.59897h17.36908v2.17114h-17.36908z" fill="none" stroke-width="0"></path><path d="M33.77011,16.40103v3.2567c0,1.19955 -0.97158,2.17114 -2.17114,2.17114h-2.17114v3.2567c0,2.3991 -1.94317,4.34227 -4.34227,4.34227h-6.51341c-2.3991,0 -4.34227,-1.94317 -4.34227,-4.34227v-10.85568h17.36908c1.19955,0 2.17114,0.97158 2.17114,2.17114zM31.59897,16.40103h-2.17114v3.2567h2.17114zM14.22989,31.59897h17.36908v2.17114h-17.36908z" fill="#ffffff" stroke-width="0"></path><path d="M2,24c0,-12.15026 9.84974,-22 22,-22c12.15026,0 22,9.84974 22,22c0,12.15026 -9.84974,22 -22,22c-12.15026,0 -22,-9.84974 -22,-22z" id="base 1 1 1" fill="none" stroke-width="1"></path><g fill="#000000" stroke-width="1" font-family="Roboto, sans-serif" font-weight="400" font-size="14" text-anchor="start"></g><rect x="2" y="2" width="44" height="22" fill="none" stroke-width="1"></rect><path d="M2,24v-22h44v22z" fill="none" stroke-width="1"></path><path d="M2,24v-22h44v22z" fill="none" stroke-width="1"></path><path d="M2,24v-22h44v22z" fill="none" stroke-width="1"></path><path d="M2,24v-22h44v22z" fill="none" stroke-width="1"></path></g></svg>