<svg version="1.1" xmlns="http://www.w3.org/2000/svg" xmlns:xlink="http://www.w3.org/1999/xlink" width="48" height="48"><defs><linearGradient x1="15.62563" y1="14.22989" x2="53.58757" y2="54.9833" gradientUnits="userSpaceOnUse" id="color-1"><stop offset="0" stop-color="#000000" stop-opacity="0.3"></stop><stop offset="1" stop-color="#000000" stop-opacity="0"></stop></linearGradient><filter id="dropshadow-base"><feColorMatrix type="matrix" values="0 0 0 0 0  0 0 0 0 0  0 0 0 0 0  0 0 0 .8 0"></feColorMatrix> <feOffset dx="0" dy="1"></feOffset> <feGaussianBlur stdDeviation="1"></feGaussianBlur> <feComposite in="SourceGraphic"></feComposite></filter><filter id="dropshadow-banner" x="-10%" y="-10%" width="120%" height="130%"><feColorMatrix type="matrix" values="0 0 0 0 0  0 0 0 0 0  0 0 0 0 0  0 0 0 .4 0"></feColorMatrix> <feOffset dx="0" dy="1"></feOffset> <feGaussianBlur stdDeviation="0.5"></feGaussianBlur> <feComposite in="SourceGraphic"></feComposite></filter></defs><g fill="none" fill-rule="nonzero" stroke="none" stroke-width="none" stroke-linecap="butt" stroke-linejoin="miter" stroke-miterlimit="10" stroke-dasharray="" stroke-dashoffset="0" font-family="none" font-weight="none" font-size="none" text-anchor="none" style="mix-blend-mode: normal"><path d="M2,24c0,-12.15026 9.84974,-22 22,-22c12.15026,0 22,9.84974 22,22c0,12.15026 -9.84974,22 -22,22c-12.15026,0 -22,-9.84974 -22,-22z" id="base 1 5" fill="#512da8" stroke-width="1"></path><path d="M16.17054,30.43373c-0.33672,-0.33672 -0.54492,-0.80196 -0.54492,-1.31606v-13.02681c0,-1.02819 0.83278,-1.86097 1.86097,-1.86097l13.02681,0c0.51409,0 0.97933,0.2082 1.31605,0.54492l0,0l13.71255,13.71255c-1.61598,7.79777 -7.35928,14.08466 -14.84353,16.4743z" fill="url(#color-1)" stroke-width="1"></path><path d="M30.51341,14.22989h-13.02681c-1.02819,0 -1.86097,0.83279 -1.86097,1.86097v13.02681c0,1.02819 0.83279,1.86097 1.86097,1.86097h3.72195l2.79146,2.79146l2.79146,-2.79146h3.72195c1.02819,0 1.86097,-0.83279 1.86097,-1.86097v-13.02681c0,-1.02819 -0.83279,-1.86097 -1.86097,-1.86097zM24.93049,29.11768h-1.86097v-1.86097h1.86097zM26.85194,21.91106l-0.83279,0.85605c-0.66995,0.66995 -1.08867,1.23289 -1.08867,2.62862h-1.86097v-0.46524c0,-1.02819 0.41872,-1.95867 1.08867,-2.63328l1.15846,-1.17241c0.33498,-0.33498 0.54433,-0.80022 0.54433,-1.31199c0,-1.02819 -0.83279,-1.86097 -1.86097,-1.86097c-1.02819,0 -1.86097,0.83279 -1.86097,1.86097h-1.86097c0,-2.05638 1.66557,-3.72195 3.72195,-3.72195c2.05638,0 3.72195,1.66557 3.72195,3.72195c0,0.81883 -0.33032,1.55857 -0.87,2.09825z" fill="none" stroke-width="0"></path><path d="M32.37438,16.09086v13.02681c0,1.02819 -0.83279,1.86097 -1.86097,1.86097h-3.72195l-2.79146,2.79146l-2.79146,-2.79146h-3.72195c-1.02819,0 -1.86097,-0.83279 -1.86097,-1.86097v-13.02681c0,-1.02819 0.83279,-1.86097 1.86097,-1.86097h13.02681c1.02819,0 1.86097,0.83279 1.86097,1.86097zM24.93049,27.2567h-1.86097v1.86097h1.86097zM27.72195,19.81281c0,-2.05638 -1.66557,-3.72195 -3.72195,-3.72195c-2.05638,0 -3.72195,1.66557 -3.72195,3.72195h1.86097c0,-1.02819 0.83279,-1.86097 1.86097,-1.86097c1.02819,0 1.86097,0.83279 1.86097,1.86097c0,0.51177 -0.20936,0.97701 -0.54433,1.31199l-1.15846,1.17241c-0.66995,0.6746 -1.08867,1.60509 -1.08867,2.63328v0.46524h1.86097c0,-1.39573 0.41872,-1.95867 1.08867,-2.62862l0.83279,-0.85605c0.53968,-0.53968 0.87,-1.27942 0.87,-2.09825z" fill="#ffffff" stroke-width="0"></path><path d="M2,24c0,-12.15026 9.84974,-22 22,-22c12.15026,0 22,9.84974 22,22c0,12.15026 -9.84974,22 -22,22c-12.15026,0 -22,-9.84974 -22,-22z" id="base 1 1 1" fill="none" stroke-width="1"></path><g fill="#000000" stroke-width="1" font-family="Roboto, sans-serif" font-weight="400" font-size="14" text-anchor="start"></g><rect x="2" y="2" width="44" height="22" fill="none" stroke-width="1"></rect><path d="M2,24v-22h44v22z" fill="none" stroke-width="1"></path><path d="M2,24v-22h44v22z" fill="none" stroke-width="1"></path><path d="M2,24v-22h44v22z" fill="none" stroke-width="1"></path><path d="M2,24v-22h44v22z" fill="none" stroke-width="1"></path></g></svg>