<svg version="1.1" xmlns="http://www.w3.org/2000/svg" xmlns:xlink="http://www.w3.org/1999/xlink" width="48" height="48"><defs><linearGradient x1="14.22989" y1="14.7229" x2="54.98331" y2="54.49029" gradientUnits="userSpaceOnUse" id="color-1"><stop offset="0" stop-color="#000000" stop-opacity="0.3"></stop><stop offset="1" stop-color="#000000" stop-opacity="0"></stop></linearGradient><filter id="dropshadow-base"><feColorMatrix type="matrix" values="0 0 0 0 0  0 0 0 0 0  0 0 0 0 0  0 0 0 .8 0"></feColorMatrix> <feOffset dx="0" dy="1"></feOffset> <feGaussianBlur stdDeviation="1"></feGaussianBlur> <feComposite in="SourceGraphic"></feComposite></filter><filter id="dropshadow-banner" x="-10%" y="-10%" width="120%" height="130%"><feColorMatrix type="matrix" values="0 0 0 0 0  0 0 0 0 0  0 0 0 0 0  0 0 0 .4 0"></feColorMatrix> <feOffset dx="0" dy="1"></feOffset> <feGaussianBlur stdDeviation="0.5"></feGaussianBlur> <feComposite in="SourceGraphic"></feComposite></filter></defs><g fill="none" fill-rule="nonzero" stroke="none" stroke-width="none" stroke-linecap="butt" stroke-linejoin="miter" stroke-miterlimit="10" stroke-dasharray="" stroke-dashoffset="0" font-family="none" font-weight="none" font-size="none" text-anchor="none" style="mix-blend-mode: normal"><path d="M2,24c0,-12.15026 9.84974,-22 22,-22c12.15026,0 22,9.84974 22,22c0,12.15026 -9.84974,22 -22,22c-12.15026,0 -22,-9.84974 -22,-22z" id="base 1 9" fill="#512da8" stroke-width="1"></path><path d="M15.42539,20.87251c-1.594,-1.594 -1.594,-4.18424 0,-5.77825l8.2627,8.2627c0.60779,-0.6072 1.12734,-1.12605 1.50055,-1.49842c-0.72547,-1.55823 -0.21457,-3.7602 1.41008,-5.38485c1.95163,-1.95674 4.75134,-2.32969 6.25338,-0.83276l12.71644,12.71644c-1.70614,8.49161 -8.3015,15.21479 -16.72409,17.10752l-13.63363,-13.63363c0,0 2.84306,-2.84306 5.58468,-5.58353l-1.09389,-1.09389z" fill="url(#color-1)" stroke-width="1"></path><path d="M19.7016,25.15383l2.89168,-2.89168l-7.16789,-7.16789c-1.594,1.594 -1.594,4.18425 0,5.77825zM26.63447,23.29927c1.55824,0.73058 3.7602,0.21458 5.38486,-1.41008c1.95674,-1.95674 2.32969,-4.75134 0.83276,-6.24827c-1.50204,-1.49693 -4.30175,-1.12397 -6.25338,0.83276c-1.62465,1.62465 -2.13555,3.82662 -1.41008,5.38486c-2.27349,2.26838 -9.97782,9.97271 -9.97782,9.97271l1.44584,1.44584l7.02994,-7.02994l7.02994,7.02994l1.44584,-1.44584l-7.02994,-7.02994z" fill="none" stroke-width="0"></path><path d="M15.42539,20.87251c-1.594,-1.594 -1.594,-4.18425 0,-5.77825l7.16789,7.16789l-2.89168,2.89168zM25.13244,24.80131l7.02994,7.02994l-1.44584,1.44584l-7.02994,-7.02994l-7.02994,7.02994l-1.44584,-1.44584c0,0 7.70433,-7.70433 9.97782,-9.97271c-0.72547,-1.55824 -0.21458,-3.7602 1.41008,-5.38486c1.95163,-1.95674 4.75134,-2.32969 6.25338,-0.83276c1.49693,1.49693 1.12397,4.29154 -0.83276,6.24827c-1.62465,1.62465 -3.82662,2.14066 -5.38486,1.41008z" fill="#ffffff" stroke-width="0"></path><path d="M2,24c0,-12.15026 9.84974,-22 22,-22c12.15026,0 22,9.84974 22,22c0,12.15026 -9.84974,22 -22,22c-12.15026,0 -22,-9.84974 -22,-22z" id="base 1 5 1" fill="none" stroke-width="1"></path><path d="M2,24c0,-12.15026 9.84974,-22 22,-22c12.15026,0 22,9.84974 22,22c0,12.15026 -9.84974,22 -22,22c-12.15026,0 -22,-9.84974 -22,-22z" id="base 1 1 1" fill="none" stroke-width="1"></path><g fill="#000000" stroke-width="1" font-family="Roboto, sans-serif" font-weight="400" font-size="14" text-anchor="start"></g><rect x="2" y="2" width="44" height="22" fill="none" stroke-width="1"></rect><path d="M2,24v-22h44v22z" fill="none" stroke-width="1"></path><path d="M2,24v-22h44v22z" fill="none" stroke-width="1"></path><path d="M2,24v-22h44v22z" fill="none" stroke-width="1"></path><path d="M2,24v-22h44v22z" fill="none" stroke-width="1"></path><g fill="#000000" stroke-width="1" font-family="Roboto, sans-serif" font-weight="400" font-size="14" text-anchor="start"></g><rect x="2" y="2" width="44" height="22" fill="none" stroke-width="1"></rect><path d="M2,24v-22h44v22z" fill="none" stroke-width="1"></path><path d="M2,24v-22h44v22z" fill="none" stroke-width="1"></path><path d="M2,24v-22h44v22z" fill="none" stroke-width="1"></path><path d="M2,24v-22h44v22z" fill="none" stroke-width="1"></path></g></svg>