<svg version="1.1" xmlns="http://www.w3.org/2000/svg" xmlns:xlink="http://www.w3.org/1999/xlink" width="48" height="48"><defs><linearGradient x1="15.21423" y1="14.22989" x2="53.99897" y2="54.98331" gradientUnits="userSpaceOnUse" id="color-1"><stop offset="0" stop-color="#000000" stop-opacity="0.3"></stop><stop offset="1" stop-color="#000000" stop-opacity="0"></stop></linearGradient><filter id="dropshadow-base"><feColorMatrix type="matrix" values="0 0 0 0 0  0 0 0 0 0  0 0 0 0 0  0 0 0 .8 0"></feColorMatrix> <feOffset dx="0" dy="1"></feOffset> <feGaussianBlur stdDeviation="1"></feGaussianBlur> <feComposite in="SourceGraphic"></feComposite></filter><filter id="dropshadow-banner" x="-10%" y="-10%" width="120%" height="130%"><feColorMatrix type="matrix" values="0 0 0 0 0  0 0 0 0 0  0 0 0 0 0  0 0 0 .4 0"></feColorMatrix> <feOffset dx="0" dy="1"></feOffset> <feGaussianBlur stdDeviation="0.5"></feGaussianBlur> <feComposite in="SourceGraphic"></feComposite></filter></defs><g fill="none" fill-rule="nonzero" stroke="none" stroke-width="none" stroke-linecap="butt" stroke-linejoin="miter" stroke-miterlimit="10" stroke-dasharray="" stroke-dashoffset="0" font-family="none" font-weight="none" font-size="none" text-anchor="none" style="mix-blend-mode: normal"><path d="M2,24c0,-12.15026 9.84974,-22 22,-22c12.15026,0 22,9.84974 22,22c0,12.15026 -9.84974,22 -22,22c-12.15026,0 -22,-9.84974 -22,-22z" id="base 1 13" fill="#512da8" stroke-width="1"></path><path d="M23.99756,33.77011l-8.78333,-15.63217c2.16408,-2.39856 5.30028,-3.90804 8.78333,-3.90804c3.26421,0 6.22037,1.32205 8.35996,3.46164l12.69973,12.69973c-1.75749,5.79802 -5.84408,10.58349 -11.17094,13.2676z" fill="url(#color-1)" stroke-width="1"></path><path d="M23.99756,14.22989c-3.48304,0 -6.61925,1.50948 -8.78333,3.90804l8.78333,15.63217l8.78821,-15.62729c-2.16408,-2.40345 -5.30028,-3.91293 -8.78821,-3.91293zM19.1125,19.11495c0,-1.0796 0.87442,-1.95402 1.95402,-1.95402c1.0796,0 1.95402,0.87442 1.95402,1.95402c0,1.0796 -0.87442,1.95402 -1.95402,1.95402c-1.0796,0 -1.95402,-0.87442 -1.95402,-1.95402zM23.99756,26.93103c-1.0796,0 -1.95402,-0.87442 -1.95402,-1.95402c0,-1.0796 0.87442,-1.95402 1.95402,-1.95402c1.0796,0 1.95402,0.87442 1.95402,1.95402c0,1.0796 -0.87442,1.95402 -1.95402,1.95402z" fill="none" stroke-width="0"></path><path d="M32.78577,18.14282l-8.78821,15.62729l-8.78333,-15.63217c2.16408,-2.39856 5.30028,-3.90804 8.78333,-3.90804c3.48793,0 6.62413,1.50948 8.78821,3.91293zM21.06652,21.06897c1.0796,0 1.95402,-0.87442 1.95402,-1.95402c0,-1.0796 -0.87442,-1.95402 -1.95402,-1.95402c-1.0796,0 -1.95402,0.87442 -1.95402,1.95402c0,1.0796 0.87442,1.95402 1.95402,1.95402zM25.95158,24.97701c0,-1.0796 -0.87442,-1.95402 -1.95402,-1.95402c-1.0796,0 -1.95402,0.87442 -1.95402,1.95402c0,1.0796 0.87442,1.95402 1.95402,1.95402c1.0796,0 1.95402,-0.87442 1.95402,-1.95402z" fill="#ffffff" stroke-width="0"></path><path d="M2,24c0,-12.15026 9.84974,-22 22,-22c12.15026,0 22,9.84974 22,22c0,12.15026 -9.84974,22 -22,22c-12.15026,0 -22,-9.84974 -22,-22z" id="base 1 9 1" fill="none" stroke-width="1"></path><path d="M2,24c0,-12.15026 9.84974,-22 22,-22c12.15026,0 22,9.84974 22,22c0,12.15026 -9.84974,22 -22,22c-12.15026,0 -22,-9.84974 -22,-22z" id="base 1 5 1" fill="none" stroke-width="1"></path><path d="M2,24c0,-12.15026 9.84974,-22 22,-22c12.15026,0 22,9.84974 22,22c0,12.15026 -9.84974,22 -22,22c-12.15026,0 -22,-9.84974 -22,-22z" id="base 1 1 1" fill="none" stroke-width="1"></path><g fill="#000000" stroke-width="1" font-family="Roboto, sans-serif" font-weight="400" font-size="14" text-anchor="start"></g><rect x="2" y="2" width="44" height="22" fill="none" stroke-width="1"></rect><path d="M2,24v-22h44v22z" fill="none" stroke-width="1"></path><path d="M2,24v-22h44v22z" fill="none" stroke-width="1"></path><path d="M2,24v-22h44v22z" fill="none" stroke-width="1"></path><path d="M2,24v-22h44v22z" fill="none" stroke-width="1"></path><g fill="#000000" stroke-width="1" font-family="Roboto, sans-serif" font-weight="400" font-size="14" text-anchor="start"></g><rect x="2" y="2" width="44" height="22" fill="none" stroke-width="1"></rect><path d="M2,24v-22h44v22z" fill="none" stroke-width="1"></path><path d="M2,24v-22h44v22z" fill="none" stroke-width="1"></path><path d="M2,24v-22h44v22z" fill="none" stroke-width="1"></path><path d="M2,24v-22h44v22z" fill="none" stroke-width="1"></path><g fill="#000000" stroke-width="1" font-family="Roboto, sans-serif" font-weight="400" font-size="14" text-anchor="start"></g><rect x="2" y="2" width="44" height="22" fill="none" stroke-width="1"></rect><path d="M2,24v-22h44v22z" fill="none" stroke-width="1"></path><path d="M2,24v-22h44v22z" fill="none" stroke-width="1"></path><path d="M2,24v-22h44v22z" fill="none" stroke-width="1"></path><path d="M2,24v-22h44v22z" fill="none" stroke-width="1"></path></g></svg>